Coordinates
version=1
nRows=65
nColumns=12
inDegrees=yes

Units are S.I. units (second, meters, Newtons, ...)
Angles are in degrees

endheader
time	SC_y	SC_z	SC_x	AC_y	AC_z	AC_x	GH_y	GH_z	GH_yy	EL_x	PS_y
       0.0              -30.72          11.76          21.17          68.69         -12.34           2.06         -15.61          48.81          136.7          33.86          90.28
   0.04197              -30.72          11.76          21.17          68.69         -12.34          2.059         -15.63           48.8          136.6          33.86          90.28
   0.08395              -30.72          11.76          21.18          68.68         -12.34          2.057         -15.65           48.8          136.6          33.86          90.28
    0.1259              -30.72          11.76          21.19          68.68         -12.34          2.056         -15.66          48.79          136.6          33.86          90.28
    0.1679              -30.72          11.76           21.2          68.67         -12.34          2.055         -15.68          48.79          136.5          33.86          90.28
    0.2099              -30.72          11.75          21.21          68.67         -12.34          2.053          -15.7          48.78          136.5          33.86          90.27
    0.2518              -30.72          11.75          21.22          68.66         -12.34          2.051         -15.73          48.78          136.4          33.87          90.27
    0.2938              -30.72          11.75          21.23          68.66         -12.34           2.05         -15.75          48.77          136.4          33.87          90.27
    0.3358              -30.72          11.75          21.24          68.65         -12.34          2.048         -15.78          48.77          136.3          33.87          90.27
    0.3778              -30.72          11.74          21.26          68.65         -12.34          2.046          -15.8          48.76          136.3          33.87          90.27
    0.4197              -30.72          11.74          21.27          68.64         -12.34          2.043         -15.83          48.75          136.2          33.87          90.27
    0.4617              -30.73          11.74          21.29          68.63         -12.34          2.041         -15.86          48.74          136.2          33.87          90.26
    0.5037              -30.73          11.73           21.3          68.63         -12.33          2.039          -15.9          48.74          136.1          33.87          90.26
    0.5457              -30.73          11.73          21.32          68.62         -12.33          2.036         -15.93          48.73          136.0          33.87          90.26
    0.5876              -30.73          11.73          21.34          68.61         -12.33          2.033         -15.97          48.72          135.9          33.88          90.26
    0.6296              -30.73          11.72          21.36           68.6         -12.33           2.03         -16.02          48.71          135.9          33.88          90.25
    0.6716              -30.73          11.72          21.38          68.59         -12.33          2.026         -16.06           48.7          135.8          33.88          90.25
    0.7136              -30.73          11.71          21.41          68.58         -12.33          2.022         -16.11          48.68          135.7          33.88          90.25
    0.7555              -30.73          11.71          21.43          68.57         -12.33          2.018         -16.17          48.67          135.6          33.88          90.25
    0.7975              -30.74           11.7          21.46          68.55         -12.33          2.014         -16.23          48.65          135.4          33.89          90.24
    0.8395              -30.74          11.69           21.5          68.54         -12.32          2.009          -16.3          48.64          135.3          33.89          90.24
    0.8815              -30.74          11.68          21.53          68.52         -12.32          2.003         -16.37          48.62          135.2          33.89          90.23
    0.9234              -30.74          11.68          21.57           68.5         -12.32          1.997         -16.45           48.6          135.0           33.9          90.23
    0.9654              -30.75          11.67          21.61          68.48         -12.32           1.99         -16.54          48.58          134.8           33.9          90.22
     1.007              -30.75          11.66          21.66          68.46         -12.31          1.983         -16.64          48.55          134.6           33.9          90.22
     1.049              -30.75          11.64          21.71          68.44         -12.31          1.974         -16.75          48.52          134.4          33.91          90.21
     1.091              -30.76          11.63          21.77          68.41         -12.31          1.965         -16.88          48.49          134.2          33.91           90.2
     1.133              -30.76          11.62          21.84          68.38          -12.3          1.954         -17.02          48.46          133.9          33.92          90.19
     1.175              -30.77           11.6          21.92          68.34          -12.3          1.943         -17.18          48.42          133.6          33.93          90.18
     1.217              -30.77          11.58          22.01           68.3         -12.29          1.929         -17.36          48.38          133.2          33.93          90.17
     1.259              -30.78          11.56           22.1          68.26         -12.29          1.914         -17.56          48.32          132.8          33.94          90.16
     1.301              -30.79          11.53          22.22           68.2         -12.28          1.896          -17.8          48.27          132.3          33.95          90.14
     1.343               -30.8           11.5          22.35          68.14         -12.28          1.875         -18.07           48.2          131.8          33.96          90.13
     1.385              -30.81          11.47           22.5          68.07         -12.27          1.852         -18.39          48.12          131.2          33.98          90.11
     1.427              -30.82          11.43          22.68          67.99         -12.26          1.824         -18.76          48.03          130.4          33.99          90.08
     1.469              -30.83          11.38          22.89          67.89         -12.24          1.791         -19.19          47.92          129.6          34.01          90.06
     1.511              -30.85          11.33          23.14          67.78         -12.23          1.752         -19.71          47.79          128.5          34.03          90.02
     1.553              -30.87          11.26          23.44          67.64         -12.21          1.706         -20.33          47.64          127.3          34.06          89.99
     1.595              -30.89          11.18           23.8          67.47         -12.19          1.649         -21.09          47.45          125.8          34.09          89.94
     1.637              -30.92          11.09          24.24          67.27         -12.17           1.58         -22.01          47.22          124.0          34.13          89.88
     1.679              -30.96          10.97          24.79          67.01         -12.14          1.495         -23.14          46.94          121.8          34.18          89.81
     1.721               -31.0          10.82          25.47           66.7          -12.1          1.389         -24.55          46.59          119.0          34.24          89.72
     1.763              -31.06          10.63          26.33           66.3         -12.05          1.255         -26.34          46.15          115.4          34.31          89.61
     1.805              -31.13          10.39          27.42           65.8         -11.99          1.085          -28.6          45.59          110.9          34.41          89.47
     1.847              -31.23          10.08          28.81          65.15         -11.91         0.8676          -31.5          44.87          105.2          34.53          89.29
     1.889              -31.35          9.687           30.6          64.32         -11.81         0.5884         -35.22          43.95          97.83          34.69          89.06
     1.931               -31.5          9.183          32.89          63.26         -11.68         0.2318         -39.97          42.78          88.42          34.89          88.76
     1.973              -31.69           8.55          35.77          61.93         -11.51        -0.2166         -45.95           41.3          76.59          35.14          88.39
     2.015              -31.92          7.779          39.27          60.31         -11.31        -0.7631         -53.23          39.49          62.17          35.45          87.94
     2.057              -32.19          6.884          43.34          58.43         -11.08         -1.396         -61.67           37.4          45.46          35.81          87.42
     2.099              -32.49          5.916          47.74           56.4         -10.83         -2.082         -70.81          35.14          27.36           36.2          86.85
     2.141              -32.78          4.947          52.14          54.36         -10.58         -2.768         -79.95          32.88          9.262          36.58          86.28
     2.183              -33.05          4.053           56.2          52.48         -10.35         -3.402         -88.39          30.79         -7.452          36.94          85.75
     2.225              -33.28          3.282           59.7          50.86         -10.15         -3.948         -95.68          28.98         -21.87          37.25           85.3
     2.267              -33.47          2.648          62.58          49.53         -9.986         -4.396         -101.7          27.51          -33.7           37.5          84.93
     2.309              -33.63          2.145          64.87          48.47         -9.856         -4.753         -106.4          26.33         -43.11           37.7          84.63
     2.351              -33.75          1.751          66.66          47.64         -9.754         -5.032         -110.1          25.41         -50.48          37.86           84.4
     2.393              -33.84          1.444          68.05           47.0         -9.675          -5.25         -113.0          24.69         -56.22          37.98          84.22
     2.434              -33.91          1.204          69.14          46.49         -9.612          -5.42         -115.3          24.13         -60.71          38.08          84.08
     2.476              -33.97          1.015           70.0           46.1         -9.564         -5.554         -117.1          23.69         -64.24          38.15          83.97
     2.518              -34.01         0.8649          70.68          45.78         -9.525          -5.66         -118.5          23.34         -67.04          38.21          83.88
      2.56              -34.05         0.7448          71.23          45.53         -9.494         -5.745         -119.6          23.06         -69.28          38.26          83.81
     2.602              -34.08         0.6474          71.67          45.32         -9.469         -5.814         -120.5          22.83          -71.1           38.3          83.75
     2.644               -34.1         0.5677          72.03          45.16         -9.448          -5.87         -121.3          22.64         -72.59          38.33          83.71
     2.686              -34.12         0.5018          72.33          45.02         -9.431         -5.917         -121.9          22.49         -73.82          38.36          83.67
